<svg width="500" height="500" xmlns="http://www.w3.org/2000/svg">

 <title/>
 <g>
  <title>background</title>
  <rect fill="none" id="canvas_background" height="402" width="582" y="-1" x="-1"/>
 </g>
 <g>
  <title>Layer 1</title>
  <path fill="#231815" id="svg_3" d="m198.539775,262.855447l89.27,0c9.65,0 9.67,-15 0,-15l-89.27,0c-9.65,0 -9.67,15 0,15z" class="cls-2"/>
  <path fill="#231815" id="svg_4" d="m323.260955,228.584241l-111.39,0c-9.65,0 -9.67,15 0,15l111.39,0c9.65,0 9.67,-15 0,-15z" class="cls-2"/>
  <path fill="#231815" id="svg_5" d="m321.977371,266.113455l-100.18,0c-9.65,0 -9.67,15 0,15l100.18,0c9.65,0 9.67,-15 0,-15z" class="cls-2"/>
  <path fill="#231815" id="svg_6" d="m217.099039,202.160962l89.27,0c9.65,0 9.67,-15 0,-15l-89.27,0c-9.65,0 -9.67,15 0,15z" class="cls-2"/>
  <path stroke="null" fill="#231815" id="svg_7" d="m295.608147,167.388155l-66.116215,0c-5.727816,0 -5.739688,15 0,15l66.116215,0c5.727816,0 5.739688,-15 0,-15z" class="cls-2"/>
  <path fill="#231815" id="svg_8" d="m286.865473,208.428568l-100.18,0c-9.65,0 -9.67,15 0,15l100.18,0c9.65,0 9.67,-15 0,-15z" class="cls-2"/>
 </g>
</svg>